PathFileType        4      (X/Y/Z)      C:\Users\pc\Desktop\IMUTRC\Sujet_04\Sujet_04_Tpose.trc         
DataRate	CameraRate	NumFrames	NumMarkers	Units	OrigDataRate	OrigDataStartFrame	OrigNumFrames
60.0	60.0	4	64	mm	60.0	94	149
Frame#	Time	pHipOrigin			pRightASI			pLeftASI			pRightCSI			pLeftCSI			pRightIschialTub			pLeftIschialTub			pSacrum			pL5SpinalProcess			pL3SpinalProcess			pT12SpinalProcess			pIJ			pT4SpinalProcess			pT8SpinalProcess			pPX			pC7SpinalProcess			pTopOfHead			pRightAuricularis			pLeftAuricularis			pBackOfHead			pRightAcromion			pLeftAcromion			pRightArmLatEpicondyle			pRightArmMedEpicondyle			pLeftArmLatEpicondyle			pLeftArmMedEpicondyle			pRightUlnarStyloid			pRightRadialStyloid			pRightOlecranon			pLeftUlnarStyloid			pLeftRadialStyloid			pLeftOlecranon			pRightTopOfHand			pRightPinky			pRightBallHand			pLeftTopOfHand			pLeftPinky			pLeftBallHand			pRightGreaterTrochanter			pRightKneeLatEpicondyle			pRightKneeMedEpicondyle			pRightPatella			pLeftGreaterTrochanter			pLeftKneeLatEpicondyle			pLeftKneeMedEpicondyle			pLeftPatella			pRightTibialTub			pRightLatMalleolus			pRightMedMalleolus			pLeftTibialTub			pLeftLatMalleolus			pLeftMedMalleolus			pRightHeelFoot			pRightFirstMetatarsal			pRightFifthMetatarsal			pRightPivotFoot			pRightHeelCenter			pRightToe			pLeftHeelFoot			pLeftFirstMetatarsal			pLeftFifthMetatarsal			pLeftPivotFoot			pLeftHeelCenter			pLeftToe			
		X1	Y1	Z1	X2	Y2	Z2	X3	Y3	Z3	X4	Y4	Z4	X5	Y5	Z5	X6	Y6	Z6	X7	Y7	Z7	X8	Y8	Z8	X9	Y9	Z9	X10	Y10	Z10	X11	Y11	Z11	X12	Y12	Z12	X13	Y13	Z13	X14	Y14	Z14	X15	Y15	Z15	X16	Y16	Z16	X17	Y17	Z17	X18	Y18	Z18	X19	Y19	Z19	X20	Y20	Z20	X21	Y21	Z21	X22	Y22	Z22	X23	Y23	Z23	X24	Y24	Z24	X25	Y25	Z25	X26	Y26	Z26	X27	Y27	Z27	X28	Y28	Z28	X29	Y29	Z29	X30	Y30	Z30	X31	Y31	Z31	X32	Y32	Z32	X33	Y33	Z33	X34	Y34	Z34	X35	Y35	Z35	X36	Y36	Z36	X37	Y37	Z37	X38	Y38	Z38	X39	Y39	Z39	X40	Y40	Z40	X41	Y41	Z41	X42	Y42	Z42	X43	Y43	Z43	X44	Y44	Z44	X45	Y45	Z45	X46	Y46	Z46	X47	Y47	Z47	X48	Y48	Z48	X49	Y49	Z49	X50	Y50	Z50	X51	Y51	Z51	X52	Y52	Z52	X53	Y53	Z53	X54	Y54	Z54	X55	Y55	Z55	X56	Y56	Z56	X57	Y57	Z57	X58	Y58	Z58	X59	Y59	Z59	X60	Y60	Z60	X61	Y61	Z61	X62	Y62	Z62	X63	Y63	Z63	X64	Y64	Z64	
94	1.55	-42.93385	1006.89416	-745.5928499999999	30.51019	1115.52894	-600.3805099999998	28.37217	1112.23522	-894.3300399999999	-17.68204	1187.47059	-627.4814199999998	-19.41558	1184.8125	-868.0958899999999	-102.74076	946.33605	-684.3413199999999	-103.60753	945.00701	-804.6485599999999	-115.04885	1029.89237	-745.3617099999999	-75.11979	1128.35709	-746.2284699999999	-62.69614	1245.02391	-746.5173999999998	-62.40721	1352.21407	-746.0551199999999	103.7231	1568.03902	-750.5623099999999	-52.52607	1552.14829	-744.6682899999998	-61.7138	1459.28867	-745.1883499999999	96.38447	1440.68208	-751.4868599999999	-45.12966	1607.96808	-743.2814699999999	27.56319	1848.35142	-742.2413499999999	34.32397	1751.04239	-677.4071899999999	15.42845	1756.01186	-813.2584399999998	-28.48774	1754.85617	-737.8497299999999	-23.63384	1591.49951	-556.6954599999999	-41.20032	1572.48842	-939.6330499999999	31.9548	1457.15065	-281.9881499999999	74.94644	1413.4656	-309.1468399999999	43.8584	1469.9788	-1212.3179	101.23837	1445.99825	-1187.35502	90.31711	1377.69702	-45.99642999999991	89.85483	1430.10752	-34.03504999999991	51.83266	1411.15422	-301.4037299999999	127.877	1413.00332	-1448.42519	107.13238	1460.79107	-1461.54226	80.37818	1435.25034	-1193.30682	130.18838	1400.17517	180.28751000000008	121.40514	1355.27665	85.52100000000009	113.95095	1381.62636	3.582640000000085	221.25668	1447.15394	-1652.98217	204.78811	1406.70482	-1557.23333	160.2363	1428.25842	-1486.44737	-42.29822	975.74834	-569.9858799999998	-84.7698	543.28946	-592.63739	-85.63656	541.20922	-676.77156	-38.07996	540.9203	-637.99819	-40.5069	973.55253	-921.1998099999998	-90.89495	541.84485	-900.8019	-95.69106	539.8224	-816.7833	-46.4587	538.72449	-853.36086	-28.54552	500.81789000000003	-637.01585	-122.6764	95.28657000000004	-591.94398	-123.36982	93.49525000000004	-658.22275	-36.40421	499.8933400000001	-853.76535	-123.31203	93.26411000000006	-903.22884	-127.1258	91.41501000000005	-837.06564	-168.38391	6.067370000000039	-621.06734	4.16048	0.057780000000041146	-672.03323	8.95659	1.386830000000036	-587.55236	30.51019	-0.05777999999996128	-632.27753	-125.85455	7.1074900000000385	-623.55207	121.05844	-0.5200599999999609	-637.42034	-168.49948	2.9470100000000534	-866.82464	5.43174	4.3338300000000505	-820.59707	7.91647	-0.05777999999994458	-905.07795	30.68355	2.0802400000000527	-860.98841	-125.97012	5.085030000000053	-865.66895	121.34736	1.2712600000000527	-858.27254	
95	1.567	-42.87607	1006.89416	-745.6506299999999	30.51019	1115.52894	-600.3805099999998	28.42995	1112.23522	-894.3300399999999	-17.68204	1187.47059	-627.5391999999999	-19.41558	1184.8125	-868.0958899999999	-102.74076	946.33605	-684.3413199999999	-103.60753	945.00701	-804.6485599999999	-115.04885	1029.89237	-745.3617099999999	-75.11979	1128.35709	-746.2862599999999	-62.63835	1245.02391	-746.5173999999998	-62.34943	1352.21407	-746.0551199999999	103.7231	1568.03902	-750.5045199999998	-52.46829	1552.14829	-744.6682899999998	-61.7138	1459.28867	-745.1883499999999	96.38447	1440.68208	-751.4868599999999	-45.07188	1607.91029	-743.2814699999999	27.5054	1848.35142	-742.1257799999998	34.38175	1750.98461	-677.3493999999998	15.37067	1756.01186	-813.2006599999999	-28.48774	1754.85617	-737.7341599999999	-23.57606	1591.49951	-556.6954599999999	-41.20032	1572.48842	-939.5752699999999	32.01259	1457.03508	-281.9881499999999	75.00422	1413.35003	-309.1468399999999	43.91619	1470.03658	-1212.3179	101.29615	1446.05603	-1187.35502	90.43267	1377.58145	-46.05420999999991	89.91261	1429.93417	-34.092829999999914	51.89044	1411.03865	-301.46150999999986	127.877	1412.94554	-1448.42519	107.19017	1460.79107	-1461.48448	80.43596	1435.30812	-1193.30682	130.36173	1399.94403	180.22972000000007	121.52071	1355.04551	85.40543000000008	114.06652	1381.45301	3.5826400000000844	221.31447	1447.09615	-1652.98217	204.8459	1406.70482	-1557.17554	160.29408	1428.20063	-1486.44737	-42.29822	975.74834	-569.9858799999998	-84.7698	543.28946	-592.63739	-85.63656	541.20922	-676.82934	-38.07996	540.86252	-637.99819	-40.5069	973.55253	-921.1998099999998	-90.89495	541.84485	-900.8019	-95.69106	539.8224	-816.7833	-46.4587	538.72449	-853.36086	-28.54552	500.81789000000003	-637.01585	-122.6764	95.28657000000004	-591.94398	-123.36982	93.49525000000004	-658.22275	-36.34642	499.83555000000007	-853.76535	-123.31203	93.26411000000006	-903.22884	-127.1258	91.41501000000005	-837.06564	-168.38391	6.067370000000039	-621.06734	4.16048	0.057780000000041146	-672.03323	8.95659	1.386830000000036	-587.55236	30.51019	-0.05777999999996128	-632.27753	-125.85455	7.1074900000000385	-623.55207	121.05844	-0.5200599999999609	-637.42034	-168.49948	2.9470100000000534	-866.82464	5.43174	4.3338300000000505	-820.59707	7.91647	-0.05777999999994458	-905.07795	30.68355	2.0802400000000527	-860.98841	-125.97012	5.085030000000053	-865.66895	121.34736	1.2712600000000527	-858.27254	
96	1.583	-42.87607	1006.89416	-745.6506299999999	30.56798	1115.47115	-600.3805099999998	28.42995	1112.23522	-894.3300399999999	-17.62426	1187.47059	-627.5391999999999	-19.35779	1184.8125	-868.1536799999999	-102.68298	946.33605	-684.3991099999998	-103.54975	945.00701	-804.7063399999998	-114.99107	1029.89237	-745.3617099999999	-75.11979	1128.2993	-746.2862599999999	-62.63835	1245.02391	-746.5173999999998	-62.34943	1352.21407	-746.0551199999999	103.7231	1568.03902	-750.5045199999998	-52.46829	1552.14829	-744.6105099999999	-61.7138	1459.23089	-745.1883499999999	96.44226	1440.68208	-751.4868599999999	-45.07188	1607.91029	-743.2814699999999	27.5054	1848.35142	-742.0102099999999	34.43954	1750.98461	-677.2916199999999	15.31288	1756.06964	-813.0850899999999	-28.48774	1754.85617	-737.6185899999999	-23.57606	1591.44172	-556.6954599999999	-41.20032	1572.43064	-939.5752699999999	32.01259	1456.86172	-281.9881499999999	75.00422	1413.23446	-309.2046299999999	43.91619	1470.09436	-1212.3179	101.35394	1446.1716	-1187.35502	90.43267	1377.35031	-46.11199999999992	89.9704	1429.70303	-34.092829999999914	51.89044	1410.92308	-301.46150999999986	127.93479	1412.94554	-1448.36741	107.19017	1460.73328	-1461.48448	80.49375	1435.36591	-1193.30682	130.53509	1399.65511	180.1719400000001	121.63628	1354.81437	85.34764000000008	114.1243	1381.27965	3.524850000000084	221.31447	1447.03837	-1652.98217	204.8459	1406.64703	-1557.17554	160.29408	1428.20063	-1486.44737	-42.24044	975.74834	-570.0436699999999	-84.7698	543.28946	-592.69517	-85.63656	541.20922	-676.82934	-38.07996	540.86252	-637.99819	-40.5069	973.55253	-921.1998099999998	-90.89495	541.84485	-900.8019	-95.69106	539.8224	-816.7833	-46.40092	538.72449	-853.36086	-28.54552	500.81789000000003	-637.01585	-122.6764	95.28657000000004	-591.94398	-123.36982	93.49525000000004	-658.22275	-36.34642	499.83555000000007	-853.76535	-123.31203	93.26411000000006	-903.22884	-127.1258	91.41501000000005	-837.06564	-168.38391	6.067370000000039	-621.12513	4.16048	4.115016720200785E-14	-672.03323	8.95659	1.386830000000036	-587.55236	30.51019	-0.05777999999996128	-632.27753	-125.85455	7.049700000000038	-623.55207	121.05844	-0.5200599999999609	-637.42034	-168.49948	2.9470100000000534	-866.82464	5.43174	4.3338300000000505	-820.59707	7.91647	-0.05777999999994458	-905.07795	30.68355	2.0802400000000527	-860.98841	-125.97012	5.085030000000053	-865.66895	121.34736	1.2712600000000527	-858.27254	
97	1.6	-42.81828	1006.89416	-745.6506299999999	30.56798	1115.47115	-600.4382899999999	28.42995	1112.23522	-894.3300399999999	-17.62426	1187.47059	-627.5391999999999	-19.35779	1184.8125	-868.1536799999999	-102.68298	946.33605	-684.3991099999998	-103.54975	944.94922	-804.7063399999998	-114.99107	1029.89237	-745.4194899999999	-75.06201	1128.2993	-746.2862599999999	-62.63835	1245.02391	-746.5173999999998	-62.34943	1352.15629	-746.0551199999999	103.7231	1568.03902	-750.4467399999999	-52.46829	1552.14829	-744.6105099999999	-61.7138	1459.23089	-745.1883499999999	96.44226	1440.68208	-751.4290799999999	-45.07188	1607.91029	-743.2236799999998	27.44762	1848.35142	-741.9524199999998	34.43954	1750.92682	-677.2338299999999	15.2551	1756.06964	-813.0273099999999	-28.48774	1754.79838	-737.5608099999998	-23.57606	1591.44172	-556.6376699999998	-41.20032	1572.43064	-939.5752699999999	32.01259	1456.74615	-281.9881499999999	75.00422	1413.11889	-309.2046299999999	43.91619	1470.09436	-1212.3179	101.35394	1446.22938	-1187.29723	90.49046	1377.17696	-46.11199999999992	89.9704	1429.52968	-34.092829999999914	51.89044	1410.80751	-301.46150999999986	127.93479	1412.88775	-1448.36741	107.19017	1460.6755	-1461.48448	80.49375	1435.42369	-1193.30682	130.59287	1399.36619	180.1719400000001	121.69407	1354.58324	85.28986000000009	114.1243	1381.04852	3.4670700000000845	221.25668	1446.9228	-1652.98217	204.8459	1406.53146	-1557.17554	160.29408	1428.14285	-1486.38958	-42.24044	975.69055	-570.0436699999999	-84.7698	543.28946	-592.69517	-85.63656	541.20922	-676.82934	-38.07996	540.86252	-637.99819	-40.44912	973.55253	-921.1998099999998	-90.89495	541.84485	-900.8019	-95.69106	539.8224	-816.7833	-46.40092	538.72449	-853.36086	-28.54552	500.81789000000003	-637.01585	-122.6764	95.28657000000004	-591.94398	-123.36982	93.49525000000004	-658.22275	-36.34642	499.83555000000007	-853.82313	-123.31203	93.20633000000005	-903.22884	-127.1258	91.41501000000005	-837.06564	-168.38391	6.067370000000039	-621.12513	4.16048	4.115016720200785E-14	-672.03323	8.95659	1.386830000000036	-587.55236	30.45241	-0.05777999999996128	-632.27753	-125.85455	7.049700000000038	-623.55207	121.05844	-0.5200599999999609	-637.42034	-168.49948	2.9470100000000534	-866.82464	5.43174	4.3338300000000505	-820.59707	7.91647	-0.05777999999994458	-905.07795	30.68355	2.0802400000000527	-860.98841	-125.97012	5.085030000000053	-865.66895	121.34736	1.2712600000000527	-858.27254	
